<?xml version="1.0" standalone="no"?>
<!DOCTYPE svg PUBLIC "-//W3C//DTD SVG 20010904//EN"
 "http://www.w3.org/TR/2001/REC-SVG-20010904/DTD/svg10.dtd">
<svg version="1.0" xmlns="http://www.w3.org/2000/svg"
 width="300.000000pt" height="200.000000pt" viewBox="0 0 300.000000 200.000000"
 preserveAspectRatio="xMidYMid meet">
<metadata>
Created by potrace 1.10, written by Peter Selinger 2001-2011
</metadata>
<g transform="translate(0.000000,200.000000) scale(0.100000,-0.100000)"
	<polygon>
fill="#000000" stroke="none">
<path d="M1445 1916 c-16 -7 -60 -32 -98 -55 -37 -22 -69 -41 -72 -41 -3 0
-28 -15 -57 -33 -29 -19 -78 -47 -108 -64 -93 -51 -313 -178 -357 -206 -75
-48 -73 -33 -73 -517 0 -480 -1 -470 68 -513 31 -20 199 -118 432 -252 30 -18
105 -61 165 -96 162 -94 139 -99 480 99 154 90 287 167 295 172 8 5 48 28 89
51 118 69 111 32 111 540 0 436 0 436 -22 469 -21 30 -132 99 -408 255 -41 23
-139 78 -216 123 -147 85 -173 93 -229 68z m208 -165 c140 -81 437 -252 532
-306 l40 -23 0 -422 0 -422 -265 -152 c-146 -84 -309 -178 -363 -210 l-98 -56
-117 68 c-64 38 -228 133 -364 212 l-248 143 0 417 0 417 88 51 c48 28 92 54
97 59 6 4 30 19 55 32 54 29 353 201 430 247 30 19 56 34 58 34 1 0 71 -40
155 -89z"/>
</g>
</svg>
